<svg width="1175" height="1175" viewBox="0 0 1175 1175" fill="none" xmlns="http://www.w3.org/2000/svg">
<path d="M0 353.033V706.066H135.243C212.125 706.066 270.486 706.599 270.486 707.265C270.486 707.931 261.426 716.191 250.233 725.516C239.174 734.975 219.187 752.027 205.863 763.35C173.484 790.927 130.979 827.029 95.936 856.738C80.2132 870.06 59.8268 887.378 50.6329 895.105C41.439 902.965 26.3824 915.754 17.0553 923.747L0 938.268V1056.57V1175L587.342 1174.73L1174.55 1174.33V821.967V469.6L1039.04 469.201C964.424 469.067 903.398 468.401 903.398 467.868C903.398 467.336 916.056 456.012 931.646 442.823C947.102 429.768 968.688 411.516 979.48 402.324C1010.53 375.813 1052.37 340.377 1102.6 297.747C1172.95 238.064 1173.75 237.265 1174.55 234.067C1174.95 232.469 1175.08 179.314 1174.95 115.901L1174.55 0.666046L587.342 0.266388L0 3.05176e-05V353.033ZM826.116 235.666C826.116 236.332 822.918 239.529 819.187 242.727C815.323 245.791 801.599 257.381 788.674 268.438C760.426 292.418 696.203 347.038 644.237 391.001C630.513 402.724 608.528 421.242 595.736 432.299C582.811 443.223 567.755 456.012 562.292 460.675L552.432 468.934L393.737 468.668L235.177 468.268L234.777 353.033C234.644 289.62 234.777 236.998 235.177 236.066C235.576 234.867 296.069 234.467 530.979 234.467C706.596 234.467 826.116 235 826.116 235.666ZM937.375 823.299V939.867L643.704 940.266C482.079 940.4 349.5 940.133 348.967 939.6C348.301 938.934 352.165 934.938 357.362 930.541C362.558 926.145 377.748 913.223 391.073 901.899C425.183 872.857 467.422 837.021 500.999 808.512C529.38 784.532 542.438 773.342 584.81 737.372C596.802 727.115 609.993 715.924 614.124 712.46L621.586 706.199L779.48 706.465L937.375 706.732V823.299Z" fill="white"/>
</svg>
